%TF.GenerationSoftware,KiCad,Pcbnew,(6.0.9)*%
%TF.CreationDate,2023-03-23T20:52:22+01:00*%
%TF.ProjectId,EBS,4542532e-6b69-4636-9164-5f7063625858,rev?*%
%TF.SameCoordinates,Original*%
%TF.FileFunction,Drillmap*%
%TF.FilePolarity,Positive*%
%FSLAX45Y45*%
G04 Gerber Fmt 4.5, Leading zero omitted, Abs format (unit mm)*
G04 Created by KiCad (PCBNEW (6.0.9)) date 2023-03-23 20:52:22*
%MOMM*%
%LPD*%
G01*
G04 APERTURE LIST*
%ADD10C,0.100000*%
%ADD11C,0.200000*%
G04 APERTURE END LIST*
D10*
X10668000Y-9791700D02*
X15113000Y-9791700D01*
X15113000Y-9791700D02*
X15113000Y-7048500D01*
X15113000Y-7048500D02*
X10668000Y-7048500D01*
X10668000Y-7048500D02*
X10668000Y-9791700D01*
D11*
X10920619Y-10107176D02*
X10920619Y-9907176D01*
X10968238Y-9907176D01*
X10996810Y-9916700D01*
X11015857Y-9935748D01*
X11025381Y-9954795D01*
X11034905Y-9992890D01*
X11034905Y-10021462D01*
X11025381Y-10059557D01*
X11015857Y-10078605D01*
X10996810Y-10097652D01*
X10968238Y-10107176D01*
X10920619Y-10107176D01*
X11120619Y-10107176D02*
X11120619Y-9973843D01*
X11120619Y-10011938D02*
X11130143Y-9992890D01*
X11139667Y-9983367D01*
X11158714Y-9973843D01*
X11177762Y-9973843D01*
X11244428Y-10107176D02*
X11244428Y-9973843D01*
X11244428Y-9907176D02*
X11234905Y-9916700D01*
X11244428Y-9926224D01*
X11253952Y-9916700D01*
X11244428Y-9907176D01*
X11244428Y-9926224D01*
X11368238Y-10107176D02*
X11349190Y-10097652D01*
X11339667Y-10078605D01*
X11339667Y-9907176D01*
X11473000Y-10107176D02*
X11453952Y-10097652D01*
X11444428Y-10078605D01*
X11444428Y-9907176D01*
X11701571Y-10107176D02*
X11701571Y-9907176D01*
X11768238Y-10050033D01*
X11834905Y-9907176D01*
X11834905Y-10107176D01*
X12015857Y-10107176D02*
X12015857Y-10002414D01*
X12006333Y-9983367D01*
X11987286Y-9973843D01*
X11949190Y-9973843D01*
X11930143Y-9983367D01*
X12015857Y-10097652D02*
X11996809Y-10107176D01*
X11949190Y-10107176D01*
X11930143Y-10097652D01*
X11920619Y-10078605D01*
X11920619Y-10059557D01*
X11930143Y-10040510D01*
X11949190Y-10030986D01*
X11996809Y-10030986D01*
X12015857Y-10021462D01*
X12111095Y-9973843D02*
X12111095Y-10173843D01*
X12111095Y-9983367D02*
X12130143Y-9973843D01*
X12168238Y-9973843D01*
X12187286Y-9983367D01*
X12196809Y-9992890D01*
X12206333Y-10011938D01*
X12206333Y-10069081D01*
X12196809Y-10088129D01*
X12187286Y-10097652D01*
X12168238Y-10107176D01*
X12130143Y-10107176D01*
X12111095Y-10097652D01*
X12292048Y-10088129D02*
X12301571Y-10097652D01*
X12292048Y-10107176D01*
X12282524Y-10097652D01*
X12292048Y-10088129D01*
X12292048Y-10107176D01*
X12292048Y-9983367D02*
X12301571Y-9992890D01*
X12292048Y-10002414D01*
X12282524Y-9992890D01*
X12292048Y-9983367D01*
X12292048Y-10002414D01*
M02*
