M48
; DRILL file {KiCad (6.0.9)} date Thu Mar 23 20:52:29 2023
; FORMAT={-:-/ absolute / inch / decimal}
; #@! TF.CreationDate,2023-03-23T20:52:29+01:00
; #@! TF.GenerationSoftware,Kicad,Pcbnew,(6.0.9)
; #@! TF.FileFunction,Plated,1,2,PTH
FMAT,2
INCH
; #@! TA.AperFunction,Plated,PTH,ComponentDrill
T1C0.0295
; #@! TA.AperFunction,Plated,PTH,ComponentDrill
T2C0.0315
; #@! TA.AperFunction,Plated,PTH,ComponentDrill
T3C0.0354
; #@! TA.AperFunction,Plated,PTH,ComponentDrill
T4C0.0394
%
G90
G05
T1
X5.2658Y-3.44
X5.2658Y-3.49
X5.2658Y-3.54
X5.47Y-3.4942
X5.52Y-3.4942
X5.57Y-3.4942
T2
X4.65Y-3.4934
X4.65Y-3.5919
X4.775Y-2.92
X4.775Y-3.32
X4.815Y-3.64
X4.86Y-3.76
X4.895Y-2.92
X4.895Y-3.32
X5.035Y-3.275
X5.035Y-3.3908
X5.035Y-3.4892
X5.19Y-2.935
X5.19Y-3.105
X5.215Y-3.64
X5.26Y-3.76
X5.435Y-3.275
X5.469Y-3.73
X5.5674Y-3.73
X5.59Y-2.935
X5.59Y-3.105
X5.7Y-3.33
X5.7Y-3.73
X5.82Y-3.33
X5.82Y-3.73
T3
X4.35Y-2.9
X4.35Y-3.0
X4.35Y-3.1552
X4.35Y-3.2552
X4.35Y-3.4102
X4.35Y-3.5102
X4.35Y-3.665
X4.35Y-3.765
X4.65Y-3.02
X4.65Y-3.32
X5.82Y-2.935
X5.82Y-3.035
T4
X4.5498Y-2.9
X4.6498Y-2.9
T0
M30
