%TF.GenerationSoftware,KiCad,Pcbnew,(6.0.9)*%
%TF.CreationDate,2023-03-23T20:52:22+01:00*%
%TF.ProjectId,EBS,4542532e-6b69-4636-9164-5f7063625858,rev?*%
%TF.SameCoordinates,Original*%
%TF.FileFunction,Drillmap*%
%TF.FilePolarity,Positive*%
%FSLAX45Y45*%
G04 Gerber Fmt 4.5, Leading zero omitted, Abs format (unit mm)*
G04 Created by KiCad (PCBNEW (6.0.9)) date 2023-03-23 20:52:22*
%MOMM*%
%LPD*%
G01*
G04 APERTURE LIST*
%ADD10C,0.100000*%
%ADD11C,0.200000*%
%ADD12C,0.075000*%
%ADD13C,0.080000*%
%ADD14C,0.090000*%
G04 APERTURE END LIST*
D10*
X10668000Y-9791700D02*
X15113000Y-9791700D01*
X15113000Y-9791700D02*
X15113000Y-7048500D01*
X15113000Y-7048500D02*
X10668000Y-7048500D01*
X10668000Y-7048500D02*
X10668000Y-9791700D01*
D11*
D12*
X13337700Y-8700100D02*
X13412700Y-8775100D01*
X13412700Y-8700100D02*
X13337700Y-8775100D01*
X13337700Y-8827100D02*
X13412700Y-8902100D01*
X13412700Y-8827100D02*
X13337700Y-8902100D01*
X13337700Y-8954100D02*
X13412700Y-9029100D01*
X13412700Y-8954100D02*
X13337700Y-9029100D01*
X13856300Y-8837700D02*
X13931300Y-8912700D01*
X13931300Y-8837700D02*
X13856300Y-8912700D01*
X13983300Y-8837700D02*
X14058300Y-8912700D01*
X14058300Y-8837700D02*
X13983300Y-8912700D01*
X14110300Y-8837700D02*
X14185300Y-8912700D01*
X14185300Y-8837700D02*
X14110300Y-8912700D01*
D13*
X11851000Y-8873362D02*
G75*
G03*
X11851000Y-8873362I-40000J0D01*
G01*
X11851000Y-9123362D02*
G75*
G03*
X11851000Y-9123362I-40000J0D01*
G01*
X12168500Y-7416800D02*
G75*
G03*
X12168500Y-7416800I-40000J0D01*
G01*
X12168500Y-8432800D02*
G75*
G03*
X12168500Y-8432800I-40000J0D01*
G01*
X12270100Y-9245600D02*
G75*
G03*
X12270100Y-9245600I-40000J0D01*
G01*
X12384400Y-9550400D02*
G75*
G03*
X12384400Y-9550400I-40000J0D01*
G01*
X12473300Y-7416800D02*
G75*
G03*
X12473300Y-7416800I-40000J0D01*
G01*
X12473300Y-8432800D02*
G75*
G03*
X12473300Y-8432800I-40000J0D01*
G01*
X12828900Y-8318500D02*
G75*
G03*
X12828900Y-8318500I-40000J0D01*
G01*
X12828900Y-8612600D02*
G75*
G03*
X12828900Y-8612600I-40000J0D01*
G01*
X12828900Y-8862600D02*
G75*
G03*
X12828900Y-8862600I-40000J0D01*
G01*
X13222600Y-7454900D02*
G75*
G03*
X13222600Y-7454900I-40000J0D01*
G01*
X13222600Y-7886700D02*
G75*
G03*
X13222600Y-7886700I-40000J0D01*
G01*
X13286100Y-9245600D02*
G75*
G03*
X13286100Y-9245600I-40000J0D01*
G01*
X13400400Y-9550400D02*
G75*
G03*
X13400400Y-9550400I-40000J0D01*
G01*
X13844900Y-8318500D02*
G75*
G03*
X13844900Y-8318500I-40000J0D01*
G01*
X13931311Y-9474200D02*
G75*
G03*
X13931311Y-9474200I-40000J0D01*
G01*
X14181311Y-9474200D02*
G75*
G03*
X14181311Y-9474200I-40000J0D01*
G01*
X14238600Y-7454900D02*
G75*
G03*
X14238600Y-7454900I-40000J0D01*
G01*
X14238600Y-7886700D02*
G75*
G03*
X14238600Y-7886700I-40000J0D01*
G01*
X14518000Y-8458200D02*
G75*
G03*
X14518000Y-8458200I-40000J0D01*
G01*
X14518000Y-9474200D02*
G75*
G03*
X14518000Y-9474200I-40000J0D01*
G01*
X14822800Y-8458200D02*
G75*
G03*
X14822800Y-8458200I-40000J0D01*
G01*
X14822800Y-9474200D02*
G75*
G03*
X14822800Y-9474200I-40000J0D01*
G01*
D14*
X11049000Y-7321000D02*
X11049000Y-7411000D01*
X11004000Y-7366000D02*
X11094000Y-7366000D01*
X11049000Y-7575000D02*
X11049000Y-7665000D01*
X11004000Y-7620000D02*
X11094000Y-7620000D01*
X11049000Y-7969200D02*
X11049000Y-8059200D01*
X11004000Y-8014200D02*
X11094000Y-8014200D01*
X11049000Y-8223200D02*
X11049000Y-8313200D01*
X11004000Y-8268200D02*
X11094000Y-8268200D01*
X11049000Y-8616900D02*
X11049000Y-8706900D01*
X11004000Y-8661900D02*
X11094000Y-8661900D01*
X11049000Y-8870900D02*
X11049000Y-8960900D01*
X11004000Y-8915900D02*
X11094000Y-8915900D01*
X11049000Y-9264100D02*
X11049000Y-9354100D01*
X11004000Y-9309100D02*
X11094000Y-9309100D01*
X11049000Y-9518100D02*
X11049000Y-9608100D01*
X11004000Y-9563100D02*
X11094000Y-9563100D01*
X11811000Y-7625800D02*
X11811000Y-7715800D01*
X11766000Y-7670800D02*
X11856000Y-7670800D01*
X11811000Y-8387800D02*
X11811000Y-8477800D01*
X11766000Y-8432800D02*
X11856000Y-8432800D01*
X14782800Y-7409900D02*
X14782800Y-7499900D01*
X14737800Y-7454900D02*
X14827800Y-7454900D01*
X14782800Y-7663900D02*
X14782800Y-7753900D01*
X14737800Y-7708900D02*
X14827800Y-7708900D01*
D10*
X11591856Y-7401356D02*
X11591856Y-7330644D01*
X11521144Y-7330644D01*
X11521144Y-7401356D01*
X11591856Y-7401356D01*
X11845856Y-7401356D02*
X11845856Y-7330644D01*
X11775144Y-7330644D01*
X11775144Y-7401356D01*
X11845856Y-7401356D01*
D11*
X10920619Y-10107176D02*
X10920619Y-9907176D01*
X10968238Y-9907176D01*
X10996810Y-9916700D01*
X11015857Y-9935748D01*
X11025381Y-9954795D01*
X11034905Y-9992890D01*
X11034905Y-10021462D01*
X11025381Y-10059557D01*
X11015857Y-10078605D01*
X10996810Y-10097652D01*
X10968238Y-10107176D01*
X10920619Y-10107176D01*
X11120619Y-10107176D02*
X11120619Y-9973843D01*
X11120619Y-10011938D02*
X11130143Y-9992890D01*
X11139667Y-9983367D01*
X11158714Y-9973843D01*
X11177762Y-9973843D01*
X11244428Y-10107176D02*
X11244428Y-9973843D01*
X11244428Y-9907176D02*
X11234905Y-9916700D01*
X11244428Y-9926224D01*
X11253952Y-9916700D01*
X11244428Y-9907176D01*
X11244428Y-9926224D01*
X11368238Y-10107176D02*
X11349190Y-10097652D01*
X11339667Y-10078605D01*
X11339667Y-9907176D01*
X11473000Y-10107176D02*
X11453952Y-10097652D01*
X11444428Y-10078605D01*
X11444428Y-9907176D01*
X11701571Y-10107176D02*
X11701571Y-9907176D01*
X11768238Y-10050033D01*
X11834905Y-9907176D01*
X11834905Y-10107176D01*
X12015857Y-10107176D02*
X12015857Y-10002414D01*
X12006333Y-9983367D01*
X11987286Y-9973843D01*
X11949190Y-9973843D01*
X11930143Y-9983367D01*
X12015857Y-10097652D02*
X11996809Y-10107176D01*
X11949190Y-10107176D01*
X11930143Y-10097652D01*
X11920619Y-10078605D01*
X11920619Y-10059557D01*
X11930143Y-10040510D01*
X11949190Y-10030986D01*
X11996809Y-10030986D01*
X12015857Y-10021462D01*
X12111095Y-9973843D02*
X12111095Y-10173843D01*
X12111095Y-9983367D02*
X12130143Y-9973843D01*
X12168238Y-9973843D01*
X12187286Y-9983367D01*
X12196809Y-9992890D01*
X12206333Y-10011938D01*
X12206333Y-10069081D01*
X12196809Y-10088129D01*
X12187286Y-10097652D01*
X12168238Y-10107176D01*
X12130143Y-10107176D01*
X12111095Y-10097652D01*
X12292048Y-10088129D02*
X12301571Y-10097652D01*
X12292048Y-10107176D01*
X12282524Y-10097652D01*
X12292048Y-10088129D01*
X12292048Y-10107176D01*
X12292048Y-9983367D02*
X12301571Y-9992890D01*
X12292048Y-10002414D01*
X12282524Y-9992890D01*
X12292048Y-9983367D01*
X12292048Y-10002414D01*
D12*
X10588000Y-10399200D02*
X10663000Y-10474200D01*
X10663000Y-10399200D02*
X10588000Y-10474200D01*
D11*
X10958714Y-10327176D02*
X10977762Y-10327176D01*
X10996810Y-10336700D01*
X11006333Y-10346224D01*
X11015857Y-10365271D01*
X11025381Y-10403367D01*
X11025381Y-10450986D01*
X11015857Y-10489081D01*
X11006333Y-10508129D01*
X10996810Y-10517652D01*
X10977762Y-10527176D01*
X10958714Y-10527176D01*
X10939667Y-10517652D01*
X10930143Y-10508129D01*
X10920619Y-10489081D01*
X10911095Y-10450986D01*
X10911095Y-10403367D01*
X10920619Y-10365271D01*
X10930143Y-10346224D01*
X10939667Y-10336700D01*
X10958714Y-10327176D01*
X11111095Y-10508129D02*
X11120619Y-10517652D01*
X11111095Y-10527176D01*
X11101571Y-10517652D01*
X11111095Y-10508129D01*
X11111095Y-10527176D01*
X11187286Y-10327176D02*
X11320619Y-10327176D01*
X11234905Y-10527176D01*
X11492048Y-10327176D02*
X11396809Y-10327176D01*
X11387286Y-10422414D01*
X11396809Y-10412890D01*
X11415857Y-10403367D01*
X11463476Y-10403367D01*
X11482524Y-10412890D01*
X11492048Y-10422414D01*
X11501571Y-10441462D01*
X11501571Y-10489081D01*
X11492048Y-10508129D01*
X11482524Y-10517652D01*
X11463476Y-10527176D01*
X11415857Y-10527176D01*
X11396809Y-10517652D01*
X11387286Y-10508129D01*
X11625381Y-10327176D02*
X11644428Y-10327176D01*
X11663476Y-10336700D01*
X11673000Y-10346224D01*
X11682524Y-10365271D01*
X11692048Y-10403367D01*
X11692048Y-10450986D01*
X11682524Y-10489081D01*
X11673000Y-10508129D01*
X11663476Y-10517652D01*
X11644428Y-10527176D01*
X11625381Y-10527176D01*
X11606333Y-10517652D01*
X11596809Y-10508129D01*
X11587286Y-10489081D01*
X11577762Y-10450986D01*
X11577762Y-10403367D01*
X11587286Y-10365271D01*
X11596809Y-10346224D01*
X11606333Y-10336700D01*
X11625381Y-10327176D01*
X11777762Y-10527176D02*
X11777762Y-10393843D01*
X11777762Y-10412890D02*
X11787286Y-10403367D01*
X11806333Y-10393843D01*
X11834905Y-10393843D01*
X11853952Y-10403367D01*
X11863476Y-10422414D01*
X11863476Y-10527176D01*
X11863476Y-10422414D02*
X11873000Y-10403367D01*
X11892048Y-10393843D01*
X11920619Y-10393843D01*
X11939667Y-10403367D01*
X11949190Y-10422414D01*
X11949190Y-10527176D01*
X12044428Y-10527176D02*
X12044428Y-10393843D01*
X12044428Y-10412890D02*
X12053952Y-10403367D01*
X12073000Y-10393843D01*
X12101571Y-10393843D01*
X12120619Y-10403367D01*
X12130143Y-10422414D01*
X12130143Y-10527176D01*
X12130143Y-10422414D02*
X12139667Y-10403367D01*
X12158714Y-10393843D01*
X12187286Y-10393843D01*
X12206333Y-10403367D01*
X12215857Y-10422414D01*
X12215857Y-10527176D01*
X12606333Y-10317652D02*
X12434905Y-10574795D01*
X12863476Y-10327176D02*
X12882524Y-10327176D01*
X12901571Y-10336700D01*
X12911095Y-10346224D01*
X12920619Y-10365271D01*
X12930143Y-10403367D01*
X12930143Y-10450986D01*
X12920619Y-10489081D01*
X12911095Y-10508129D01*
X12901571Y-10517652D01*
X12882524Y-10527176D01*
X12863476Y-10527176D01*
X12844428Y-10517652D01*
X12834905Y-10508129D01*
X12825381Y-10489081D01*
X12815857Y-10450986D01*
X12815857Y-10403367D01*
X12825381Y-10365271D01*
X12834905Y-10346224D01*
X12844428Y-10336700D01*
X12863476Y-10327176D01*
X13015857Y-10508129D02*
X13025381Y-10517652D01*
X13015857Y-10527176D01*
X13006333Y-10517652D01*
X13015857Y-10508129D01*
X13015857Y-10527176D01*
X13149190Y-10327176D02*
X13168238Y-10327176D01*
X13187286Y-10336700D01*
X13196809Y-10346224D01*
X13206333Y-10365271D01*
X13215857Y-10403367D01*
X13215857Y-10450986D01*
X13206333Y-10489081D01*
X13196809Y-10508129D01*
X13187286Y-10517652D01*
X13168238Y-10527176D01*
X13149190Y-10527176D01*
X13130143Y-10517652D01*
X13120619Y-10508129D01*
X13111095Y-10489081D01*
X13101571Y-10450986D01*
X13101571Y-10403367D01*
X13111095Y-10365271D01*
X13120619Y-10346224D01*
X13130143Y-10336700D01*
X13149190Y-10327176D01*
X13292048Y-10346224D02*
X13301571Y-10336700D01*
X13320619Y-10327176D01*
X13368238Y-10327176D01*
X13387286Y-10336700D01*
X13396809Y-10346224D01*
X13406333Y-10365271D01*
X13406333Y-10384319D01*
X13396809Y-10412890D01*
X13282524Y-10527176D01*
X13406333Y-10527176D01*
X13501571Y-10527176D02*
X13539667Y-10527176D01*
X13558714Y-10517652D01*
X13568238Y-10508129D01*
X13587286Y-10479557D01*
X13596809Y-10441462D01*
X13596809Y-10365271D01*
X13587286Y-10346224D01*
X13577762Y-10336700D01*
X13558714Y-10327176D01*
X13520619Y-10327176D01*
X13501571Y-10336700D01*
X13492048Y-10346224D01*
X13482524Y-10365271D01*
X13482524Y-10412890D01*
X13492048Y-10431938D01*
X13501571Y-10441462D01*
X13520619Y-10450986D01*
X13558714Y-10450986D01*
X13577762Y-10441462D01*
X13587286Y-10431938D01*
X13596809Y-10412890D01*
X13777762Y-10327176D02*
X13682524Y-10327176D01*
X13673000Y-10422414D01*
X13682524Y-10412890D01*
X13701571Y-10403367D01*
X13749190Y-10403367D01*
X13768238Y-10412890D01*
X13777762Y-10422414D01*
X13787286Y-10441462D01*
X13787286Y-10489081D01*
X13777762Y-10508129D01*
X13768238Y-10517652D01*
X13749190Y-10527176D01*
X13701571Y-10527176D01*
X13682524Y-10517652D01*
X13673000Y-10508129D01*
X13863476Y-10327176D02*
X13863476Y-10365271D01*
X13939667Y-10327176D02*
X13939667Y-10365271D01*
X14234905Y-10603367D02*
X14225381Y-10593843D01*
X14206333Y-10565271D01*
X14196809Y-10546224D01*
X14187286Y-10517652D01*
X14177762Y-10470033D01*
X14177762Y-10431938D01*
X14187286Y-10384319D01*
X14196809Y-10355748D01*
X14206333Y-10336700D01*
X14225381Y-10308129D01*
X14234905Y-10298605D01*
X14396809Y-10327176D02*
X14358714Y-10327176D01*
X14339667Y-10336700D01*
X14330143Y-10346224D01*
X14311095Y-10374795D01*
X14301571Y-10412890D01*
X14301571Y-10489081D01*
X14311095Y-10508129D01*
X14320619Y-10517652D01*
X14339667Y-10527176D01*
X14377762Y-10527176D01*
X14396809Y-10517652D01*
X14406333Y-10508129D01*
X14415857Y-10489081D01*
X14415857Y-10441462D01*
X14406333Y-10422414D01*
X14396809Y-10412890D01*
X14377762Y-10403367D01*
X14339667Y-10403367D01*
X14320619Y-10412890D01*
X14311095Y-10422414D01*
X14301571Y-10441462D01*
X14653952Y-10527176D02*
X14653952Y-10327176D01*
X14739667Y-10527176D02*
X14739667Y-10422414D01*
X14730143Y-10403367D01*
X14711095Y-10393843D01*
X14682524Y-10393843D01*
X14663476Y-10403367D01*
X14653952Y-10412890D01*
X14863476Y-10527176D02*
X14844428Y-10517652D01*
X14834905Y-10508129D01*
X14825381Y-10489081D01*
X14825381Y-10431938D01*
X14834905Y-10412890D01*
X14844428Y-10403367D01*
X14863476Y-10393843D01*
X14892048Y-10393843D01*
X14911095Y-10403367D01*
X14920619Y-10412890D01*
X14930143Y-10431938D01*
X14930143Y-10489081D01*
X14920619Y-10508129D01*
X14911095Y-10517652D01*
X14892048Y-10527176D01*
X14863476Y-10527176D01*
X15044428Y-10527176D02*
X15025381Y-10517652D01*
X15015857Y-10498605D01*
X15015857Y-10327176D01*
X15196809Y-10517652D02*
X15177762Y-10527176D01*
X15139667Y-10527176D01*
X15120619Y-10517652D01*
X15111095Y-10498605D01*
X15111095Y-10422414D01*
X15120619Y-10403367D01*
X15139667Y-10393843D01*
X15177762Y-10393843D01*
X15196809Y-10403367D01*
X15206333Y-10422414D01*
X15206333Y-10441462D01*
X15111095Y-10460510D01*
X15282524Y-10517652D02*
X15301571Y-10527176D01*
X15339667Y-10527176D01*
X15358714Y-10517652D01*
X15368238Y-10498605D01*
X15368238Y-10489081D01*
X15358714Y-10470033D01*
X15339667Y-10460510D01*
X15311095Y-10460510D01*
X15292048Y-10450986D01*
X15282524Y-10431938D01*
X15282524Y-10422414D01*
X15292048Y-10403367D01*
X15311095Y-10393843D01*
X15339667Y-10393843D01*
X15358714Y-10403367D01*
X15434905Y-10603367D02*
X15444428Y-10593843D01*
X15463476Y-10565271D01*
X15473000Y-10546224D01*
X15482524Y-10517652D01*
X15492048Y-10470033D01*
X15492048Y-10431938D01*
X15482524Y-10384319D01*
X15473000Y-10355748D01*
X15463476Y-10336700D01*
X15444428Y-10308129D01*
X15434905Y-10298605D01*
D13*
X10663000Y-10700700D02*
G75*
G03*
X10663000Y-10700700I-40000J0D01*
G01*
D11*
X10958714Y-10591176D02*
X10977762Y-10591176D01*
X10996810Y-10600700D01*
X11006333Y-10610224D01*
X11015857Y-10629271D01*
X11025381Y-10667367D01*
X11025381Y-10714986D01*
X11015857Y-10753081D01*
X11006333Y-10772129D01*
X10996810Y-10781652D01*
X10977762Y-10791176D01*
X10958714Y-10791176D01*
X10939667Y-10781652D01*
X10930143Y-10772129D01*
X10920619Y-10753081D01*
X10911095Y-10714986D01*
X10911095Y-10667367D01*
X10920619Y-10629271D01*
X10930143Y-10610224D01*
X10939667Y-10600700D01*
X10958714Y-10591176D01*
X11111095Y-10772129D02*
X11120619Y-10781652D01*
X11111095Y-10791176D01*
X11101571Y-10781652D01*
X11111095Y-10772129D01*
X11111095Y-10791176D01*
X11234905Y-10676890D02*
X11215857Y-10667367D01*
X11206333Y-10657843D01*
X11196809Y-10638795D01*
X11196809Y-10629271D01*
X11206333Y-10610224D01*
X11215857Y-10600700D01*
X11234905Y-10591176D01*
X11273000Y-10591176D01*
X11292048Y-10600700D01*
X11301571Y-10610224D01*
X11311095Y-10629271D01*
X11311095Y-10638795D01*
X11301571Y-10657843D01*
X11292048Y-10667367D01*
X11273000Y-10676890D01*
X11234905Y-10676890D01*
X11215857Y-10686414D01*
X11206333Y-10695938D01*
X11196809Y-10714986D01*
X11196809Y-10753081D01*
X11206333Y-10772129D01*
X11215857Y-10781652D01*
X11234905Y-10791176D01*
X11273000Y-10791176D01*
X11292048Y-10781652D01*
X11301571Y-10772129D01*
X11311095Y-10753081D01*
X11311095Y-10714986D01*
X11301571Y-10695938D01*
X11292048Y-10686414D01*
X11273000Y-10676890D01*
X11434905Y-10591176D02*
X11453952Y-10591176D01*
X11473000Y-10600700D01*
X11482524Y-10610224D01*
X11492048Y-10629271D01*
X11501571Y-10667367D01*
X11501571Y-10714986D01*
X11492048Y-10753081D01*
X11482524Y-10772129D01*
X11473000Y-10781652D01*
X11453952Y-10791176D01*
X11434905Y-10791176D01*
X11415857Y-10781652D01*
X11406333Y-10772129D01*
X11396809Y-10753081D01*
X11387286Y-10714986D01*
X11387286Y-10667367D01*
X11396809Y-10629271D01*
X11406333Y-10610224D01*
X11415857Y-10600700D01*
X11434905Y-10591176D01*
X11625381Y-10591176D02*
X11644428Y-10591176D01*
X11663476Y-10600700D01*
X11673000Y-10610224D01*
X11682524Y-10629271D01*
X11692048Y-10667367D01*
X11692048Y-10714986D01*
X11682524Y-10753081D01*
X11673000Y-10772129D01*
X11663476Y-10781652D01*
X11644428Y-10791176D01*
X11625381Y-10791176D01*
X11606333Y-10781652D01*
X11596809Y-10772129D01*
X11587286Y-10753081D01*
X11577762Y-10714986D01*
X11577762Y-10667367D01*
X11587286Y-10629271D01*
X11596809Y-10610224D01*
X11606333Y-10600700D01*
X11625381Y-10591176D01*
X11777762Y-10791176D02*
X11777762Y-10657843D01*
X11777762Y-10676890D02*
X11787286Y-10667367D01*
X11806333Y-10657843D01*
X11834905Y-10657843D01*
X11853952Y-10667367D01*
X11863476Y-10686414D01*
X11863476Y-10791176D01*
X11863476Y-10686414D02*
X11873000Y-10667367D01*
X11892048Y-10657843D01*
X11920619Y-10657843D01*
X11939667Y-10667367D01*
X11949190Y-10686414D01*
X11949190Y-10791176D01*
X12044428Y-10791176D02*
X12044428Y-10657843D01*
X12044428Y-10676890D02*
X12053952Y-10667367D01*
X12073000Y-10657843D01*
X12101571Y-10657843D01*
X12120619Y-10667367D01*
X12130143Y-10686414D01*
X12130143Y-10791176D01*
X12130143Y-10686414D02*
X12139667Y-10667367D01*
X12158714Y-10657843D01*
X12187286Y-10657843D01*
X12206333Y-10667367D01*
X12215857Y-10686414D01*
X12215857Y-10791176D01*
X12606333Y-10581652D02*
X12434905Y-10838795D01*
X12863476Y-10591176D02*
X12882524Y-10591176D01*
X12901571Y-10600700D01*
X12911095Y-10610224D01*
X12920619Y-10629271D01*
X12930143Y-10667367D01*
X12930143Y-10714986D01*
X12920619Y-10753081D01*
X12911095Y-10772129D01*
X12901571Y-10781652D01*
X12882524Y-10791176D01*
X12863476Y-10791176D01*
X12844428Y-10781652D01*
X12834905Y-10772129D01*
X12825381Y-10753081D01*
X12815857Y-10714986D01*
X12815857Y-10667367D01*
X12825381Y-10629271D01*
X12834905Y-10610224D01*
X12844428Y-10600700D01*
X12863476Y-10591176D01*
X13015857Y-10772129D02*
X13025381Y-10781652D01*
X13015857Y-10791176D01*
X13006333Y-10781652D01*
X13015857Y-10772129D01*
X13015857Y-10791176D01*
X13149190Y-10591176D02*
X13168238Y-10591176D01*
X13187286Y-10600700D01*
X13196809Y-10610224D01*
X13206333Y-10629271D01*
X13215857Y-10667367D01*
X13215857Y-10714986D01*
X13206333Y-10753081D01*
X13196809Y-10772129D01*
X13187286Y-10781652D01*
X13168238Y-10791176D01*
X13149190Y-10791176D01*
X13130143Y-10781652D01*
X13120619Y-10772129D01*
X13111095Y-10753081D01*
X13101571Y-10714986D01*
X13101571Y-10667367D01*
X13111095Y-10629271D01*
X13120619Y-10610224D01*
X13130143Y-10600700D01*
X13149190Y-10591176D01*
X13282524Y-10591176D02*
X13406333Y-10591176D01*
X13339667Y-10667367D01*
X13368238Y-10667367D01*
X13387286Y-10676890D01*
X13396809Y-10686414D01*
X13406333Y-10705462D01*
X13406333Y-10753081D01*
X13396809Y-10772129D01*
X13387286Y-10781652D01*
X13368238Y-10791176D01*
X13311095Y-10791176D01*
X13292048Y-10781652D01*
X13282524Y-10772129D01*
X13596809Y-10791176D02*
X13482524Y-10791176D01*
X13539667Y-10791176D02*
X13539667Y-10591176D01*
X13520619Y-10619748D01*
X13501571Y-10638795D01*
X13482524Y-10648319D01*
X13777762Y-10591176D02*
X13682524Y-10591176D01*
X13673000Y-10686414D01*
X13682524Y-10676890D01*
X13701571Y-10667367D01*
X13749190Y-10667367D01*
X13768238Y-10676890D01*
X13777762Y-10686414D01*
X13787286Y-10705462D01*
X13787286Y-10753081D01*
X13777762Y-10772129D01*
X13768238Y-10781652D01*
X13749190Y-10791176D01*
X13701571Y-10791176D01*
X13682524Y-10781652D01*
X13673000Y-10772129D01*
X13863476Y-10591176D02*
X13863476Y-10629271D01*
X13939667Y-10591176D02*
X13939667Y-10629271D01*
X14234905Y-10867367D02*
X14225381Y-10857843D01*
X14206333Y-10829271D01*
X14196809Y-10810224D01*
X14187286Y-10781652D01*
X14177762Y-10734033D01*
X14177762Y-10695938D01*
X14187286Y-10648319D01*
X14196809Y-10619748D01*
X14206333Y-10600700D01*
X14225381Y-10572129D01*
X14234905Y-10562605D01*
X14301571Y-10610224D02*
X14311095Y-10600700D01*
X14330143Y-10591176D01*
X14377762Y-10591176D01*
X14396809Y-10600700D01*
X14406333Y-10610224D01*
X14415857Y-10629271D01*
X14415857Y-10648319D01*
X14406333Y-10676890D01*
X14292048Y-10791176D01*
X14415857Y-10791176D01*
X14587286Y-10657843D02*
X14587286Y-10791176D01*
X14539667Y-10581652D02*
X14492048Y-10724510D01*
X14615857Y-10724510D01*
X14844428Y-10791176D02*
X14844428Y-10591176D01*
X14930143Y-10791176D02*
X14930143Y-10686414D01*
X14920619Y-10667367D01*
X14901571Y-10657843D01*
X14873000Y-10657843D01*
X14853952Y-10667367D01*
X14844428Y-10676890D01*
X15053952Y-10791176D02*
X15034905Y-10781652D01*
X15025381Y-10772129D01*
X15015857Y-10753081D01*
X15015857Y-10695938D01*
X15025381Y-10676890D01*
X15034905Y-10667367D01*
X15053952Y-10657843D01*
X15082524Y-10657843D01*
X15101571Y-10667367D01*
X15111095Y-10676890D01*
X15120619Y-10695938D01*
X15120619Y-10753081D01*
X15111095Y-10772129D01*
X15101571Y-10781652D01*
X15082524Y-10791176D01*
X15053952Y-10791176D01*
X15234905Y-10791176D02*
X15215857Y-10781652D01*
X15206333Y-10762605D01*
X15206333Y-10591176D01*
X15387286Y-10781652D02*
X15368238Y-10791176D01*
X15330143Y-10791176D01*
X15311095Y-10781652D01*
X15301571Y-10762605D01*
X15301571Y-10686414D01*
X15311095Y-10667367D01*
X15330143Y-10657843D01*
X15368238Y-10657843D01*
X15387286Y-10667367D01*
X15396809Y-10686414D01*
X15396809Y-10705462D01*
X15301571Y-10724510D01*
X15473000Y-10781652D02*
X15492048Y-10791176D01*
X15530143Y-10791176D01*
X15549190Y-10781652D01*
X15558714Y-10762605D01*
X15558714Y-10753081D01*
X15549190Y-10734033D01*
X15530143Y-10724510D01*
X15501571Y-10724510D01*
X15482524Y-10714986D01*
X15473000Y-10695938D01*
X15473000Y-10686414D01*
X15482524Y-10667367D01*
X15501571Y-10657843D01*
X15530143Y-10657843D01*
X15549190Y-10667367D01*
X15625381Y-10867367D02*
X15634905Y-10857843D01*
X15653952Y-10829271D01*
X15663476Y-10810224D01*
X15673000Y-10781652D01*
X15682524Y-10734033D01*
X15682524Y-10695938D01*
X15673000Y-10648319D01*
X15663476Y-10619748D01*
X15653952Y-10600700D01*
X15634905Y-10572129D01*
X15625381Y-10562605D01*
D14*
X10618000Y-10919700D02*
X10618000Y-11009700D01*
X10573000Y-10964700D02*
X10663000Y-10964700D01*
D11*
X10958714Y-10855176D02*
X10977762Y-10855176D01*
X10996810Y-10864700D01*
X11006333Y-10874224D01*
X11015857Y-10893271D01*
X11025381Y-10931367D01*
X11025381Y-10978986D01*
X11015857Y-11017081D01*
X11006333Y-11036129D01*
X10996810Y-11045652D01*
X10977762Y-11055176D01*
X10958714Y-11055176D01*
X10939667Y-11045652D01*
X10930143Y-11036129D01*
X10920619Y-11017081D01*
X10911095Y-10978986D01*
X10911095Y-10931367D01*
X10920619Y-10893271D01*
X10930143Y-10874224D01*
X10939667Y-10864700D01*
X10958714Y-10855176D01*
X11111095Y-11036129D02*
X11120619Y-11045652D01*
X11111095Y-11055176D01*
X11101571Y-11045652D01*
X11111095Y-11036129D01*
X11111095Y-11055176D01*
X11215857Y-11055176D02*
X11253952Y-11055176D01*
X11273000Y-11045652D01*
X11282524Y-11036129D01*
X11301571Y-11007557D01*
X11311095Y-10969462D01*
X11311095Y-10893271D01*
X11301571Y-10874224D01*
X11292048Y-10864700D01*
X11273000Y-10855176D01*
X11234905Y-10855176D01*
X11215857Y-10864700D01*
X11206333Y-10874224D01*
X11196809Y-10893271D01*
X11196809Y-10940890D01*
X11206333Y-10959938D01*
X11215857Y-10969462D01*
X11234905Y-10978986D01*
X11273000Y-10978986D01*
X11292048Y-10969462D01*
X11301571Y-10959938D01*
X11311095Y-10940890D01*
X11434905Y-10855176D02*
X11453952Y-10855176D01*
X11473000Y-10864700D01*
X11482524Y-10874224D01*
X11492048Y-10893271D01*
X11501571Y-10931367D01*
X11501571Y-10978986D01*
X11492048Y-11017081D01*
X11482524Y-11036129D01*
X11473000Y-11045652D01*
X11453952Y-11055176D01*
X11434905Y-11055176D01*
X11415857Y-11045652D01*
X11406333Y-11036129D01*
X11396809Y-11017081D01*
X11387286Y-10978986D01*
X11387286Y-10931367D01*
X11396809Y-10893271D01*
X11406333Y-10874224D01*
X11415857Y-10864700D01*
X11434905Y-10855176D01*
X11625381Y-10855176D02*
X11644428Y-10855176D01*
X11663476Y-10864700D01*
X11673000Y-10874224D01*
X11682524Y-10893271D01*
X11692048Y-10931367D01*
X11692048Y-10978986D01*
X11682524Y-11017081D01*
X11673000Y-11036129D01*
X11663476Y-11045652D01*
X11644428Y-11055176D01*
X11625381Y-11055176D01*
X11606333Y-11045652D01*
X11596809Y-11036129D01*
X11587286Y-11017081D01*
X11577762Y-10978986D01*
X11577762Y-10931367D01*
X11587286Y-10893271D01*
X11596809Y-10874224D01*
X11606333Y-10864700D01*
X11625381Y-10855176D01*
X11777762Y-11055176D02*
X11777762Y-10921843D01*
X11777762Y-10940890D02*
X11787286Y-10931367D01*
X11806333Y-10921843D01*
X11834905Y-10921843D01*
X11853952Y-10931367D01*
X11863476Y-10950414D01*
X11863476Y-11055176D01*
X11863476Y-10950414D02*
X11873000Y-10931367D01*
X11892048Y-10921843D01*
X11920619Y-10921843D01*
X11939667Y-10931367D01*
X11949190Y-10950414D01*
X11949190Y-11055176D01*
X12044428Y-11055176D02*
X12044428Y-10921843D01*
X12044428Y-10940890D02*
X12053952Y-10931367D01*
X12073000Y-10921843D01*
X12101571Y-10921843D01*
X12120619Y-10931367D01*
X12130143Y-10950414D01*
X12130143Y-11055176D01*
X12130143Y-10950414D02*
X12139667Y-10931367D01*
X12158714Y-10921843D01*
X12187286Y-10921843D01*
X12206333Y-10931367D01*
X12215857Y-10950414D01*
X12215857Y-11055176D01*
X12606333Y-10845652D02*
X12434905Y-11102795D01*
X12863476Y-10855176D02*
X12882524Y-10855176D01*
X12901571Y-10864700D01*
X12911095Y-10874224D01*
X12920619Y-10893271D01*
X12930143Y-10931367D01*
X12930143Y-10978986D01*
X12920619Y-11017081D01*
X12911095Y-11036129D01*
X12901571Y-11045652D01*
X12882524Y-11055176D01*
X12863476Y-11055176D01*
X12844428Y-11045652D01*
X12834905Y-11036129D01*
X12825381Y-11017081D01*
X12815857Y-10978986D01*
X12815857Y-10931367D01*
X12825381Y-10893271D01*
X12834905Y-10874224D01*
X12844428Y-10864700D01*
X12863476Y-10855176D01*
X13015857Y-11036129D02*
X13025381Y-11045652D01*
X13015857Y-11055176D01*
X13006333Y-11045652D01*
X13015857Y-11036129D01*
X13015857Y-11055176D01*
X13149190Y-10855176D02*
X13168238Y-10855176D01*
X13187286Y-10864700D01*
X13196809Y-10874224D01*
X13206333Y-10893271D01*
X13215857Y-10931367D01*
X13215857Y-10978986D01*
X13206333Y-11017081D01*
X13196809Y-11036129D01*
X13187286Y-11045652D01*
X13168238Y-11055176D01*
X13149190Y-11055176D01*
X13130143Y-11045652D01*
X13120619Y-11036129D01*
X13111095Y-11017081D01*
X13101571Y-10978986D01*
X13101571Y-10931367D01*
X13111095Y-10893271D01*
X13120619Y-10874224D01*
X13130143Y-10864700D01*
X13149190Y-10855176D01*
X13282524Y-10855176D02*
X13406333Y-10855176D01*
X13339667Y-10931367D01*
X13368238Y-10931367D01*
X13387286Y-10940890D01*
X13396809Y-10950414D01*
X13406333Y-10969462D01*
X13406333Y-11017081D01*
X13396809Y-11036129D01*
X13387286Y-11045652D01*
X13368238Y-11055176D01*
X13311095Y-11055176D01*
X13292048Y-11045652D01*
X13282524Y-11036129D01*
X13587286Y-10855176D02*
X13492048Y-10855176D01*
X13482524Y-10950414D01*
X13492048Y-10940890D01*
X13511095Y-10931367D01*
X13558714Y-10931367D01*
X13577762Y-10940890D01*
X13587286Y-10950414D01*
X13596809Y-10969462D01*
X13596809Y-11017081D01*
X13587286Y-11036129D01*
X13577762Y-11045652D01*
X13558714Y-11055176D01*
X13511095Y-11055176D01*
X13492048Y-11045652D01*
X13482524Y-11036129D01*
X13768238Y-10921843D02*
X13768238Y-11055176D01*
X13720619Y-10845652D02*
X13673000Y-10988510D01*
X13796809Y-10988510D01*
X13863476Y-10855176D02*
X13863476Y-10893271D01*
X13939667Y-10855176D02*
X13939667Y-10893271D01*
X14234905Y-11131367D02*
X14225381Y-11121843D01*
X14206333Y-11093271D01*
X14196809Y-11074224D01*
X14187286Y-11045652D01*
X14177762Y-10998033D01*
X14177762Y-10959938D01*
X14187286Y-10912319D01*
X14196809Y-10883748D01*
X14206333Y-10864700D01*
X14225381Y-10836129D01*
X14234905Y-10826605D01*
X14415857Y-11055176D02*
X14301571Y-11055176D01*
X14358714Y-11055176D02*
X14358714Y-10855176D01*
X14339667Y-10883748D01*
X14320619Y-10902795D01*
X14301571Y-10912319D01*
X14492048Y-10874224D02*
X14501571Y-10864700D01*
X14520619Y-10855176D01*
X14568238Y-10855176D01*
X14587286Y-10864700D01*
X14596809Y-10874224D01*
X14606333Y-10893271D01*
X14606333Y-10912319D01*
X14596809Y-10940890D01*
X14482524Y-11055176D01*
X14606333Y-11055176D01*
X14844428Y-11055176D02*
X14844428Y-10855176D01*
X14930143Y-11055176D02*
X14930143Y-10950414D01*
X14920619Y-10931367D01*
X14901571Y-10921843D01*
X14873000Y-10921843D01*
X14853952Y-10931367D01*
X14844428Y-10940890D01*
X15053952Y-11055176D02*
X15034905Y-11045652D01*
X15025381Y-11036129D01*
X15015857Y-11017081D01*
X15015857Y-10959938D01*
X15025381Y-10940890D01*
X15034905Y-10931367D01*
X15053952Y-10921843D01*
X15082524Y-10921843D01*
X15101571Y-10931367D01*
X15111095Y-10940890D01*
X15120619Y-10959938D01*
X15120619Y-11017081D01*
X15111095Y-11036129D01*
X15101571Y-11045652D01*
X15082524Y-11055176D01*
X15053952Y-11055176D01*
X15234905Y-11055176D02*
X15215857Y-11045652D01*
X15206333Y-11026605D01*
X15206333Y-10855176D01*
X15387286Y-11045652D02*
X15368238Y-11055176D01*
X15330143Y-11055176D01*
X15311095Y-11045652D01*
X15301571Y-11026605D01*
X15301571Y-10950414D01*
X15311095Y-10931367D01*
X15330143Y-10921843D01*
X15368238Y-10921843D01*
X15387286Y-10931367D01*
X15396809Y-10950414D01*
X15396809Y-10969462D01*
X15301571Y-10988510D01*
X15473000Y-11045652D02*
X15492048Y-11055176D01*
X15530143Y-11055176D01*
X15549190Y-11045652D01*
X15558714Y-11026605D01*
X15558714Y-11017081D01*
X15549190Y-10998033D01*
X15530143Y-10988510D01*
X15501571Y-10988510D01*
X15482524Y-10978986D01*
X15473000Y-10959938D01*
X15473000Y-10950414D01*
X15482524Y-10931367D01*
X15501571Y-10921843D01*
X15530143Y-10921843D01*
X15549190Y-10931367D01*
X15625381Y-11131367D02*
X15634905Y-11121843D01*
X15653952Y-11093271D01*
X15663476Y-11074224D01*
X15673000Y-11045652D01*
X15682524Y-10998033D01*
X15682524Y-10959938D01*
X15673000Y-10912319D01*
X15663476Y-10883748D01*
X15653952Y-10864700D01*
X15634905Y-10836129D01*
X15625381Y-10826605D01*
D10*
X10648356Y-11264056D02*
X10648356Y-11193344D01*
X10577644Y-11193344D01*
X10577644Y-11264056D01*
X10648356Y-11264056D01*
D11*
X11025381Y-11319176D02*
X10911095Y-11319176D01*
X10968238Y-11319176D02*
X10968238Y-11119176D01*
X10949190Y-11147748D01*
X10930143Y-11166795D01*
X10911095Y-11176319D01*
X11111095Y-11300128D02*
X11120619Y-11309652D01*
X11111095Y-11319176D01*
X11101571Y-11309652D01*
X11111095Y-11300128D01*
X11111095Y-11319176D01*
X11244428Y-11119176D02*
X11263476Y-11119176D01*
X11282524Y-11128700D01*
X11292048Y-11138224D01*
X11301571Y-11157271D01*
X11311095Y-11195367D01*
X11311095Y-11242986D01*
X11301571Y-11281081D01*
X11292048Y-11300128D01*
X11282524Y-11309652D01*
X11263476Y-11319176D01*
X11244428Y-11319176D01*
X11225381Y-11309652D01*
X11215857Y-11300128D01*
X11206333Y-11281081D01*
X11196809Y-11242986D01*
X11196809Y-11195367D01*
X11206333Y-11157271D01*
X11215857Y-11138224D01*
X11225381Y-11128700D01*
X11244428Y-11119176D01*
X11434905Y-11119176D02*
X11453952Y-11119176D01*
X11473000Y-11128700D01*
X11482524Y-11138224D01*
X11492048Y-11157271D01*
X11501571Y-11195367D01*
X11501571Y-11242986D01*
X11492048Y-11281081D01*
X11482524Y-11300128D01*
X11473000Y-11309652D01*
X11453952Y-11319176D01*
X11434905Y-11319176D01*
X11415857Y-11309652D01*
X11406333Y-11300128D01*
X11396809Y-11281081D01*
X11387286Y-11242986D01*
X11387286Y-11195367D01*
X11396809Y-11157271D01*
X11406333Y-11138224D01*
X11415857Y-11128700D01*
X11434905Y-11119176D01*
X11625381Y-11119176D02*
X11644428Y-11119176D01*
X11663476Y-11128700D01*
X11673000Y-11138224D01*
X11682524Y-11157271D01*
X11692048Y-11195367D01*
X11692048Y-11242986D01*
X11682524Y-11281081D01*
X11673000Y-11300128D01*
X11663476Y-11309652D01*
X11644428Y-11319176D01*
X11625381Y-11319176D01*
X11606333Y-11309652D01*
X11596809Y-11300128D01*
X11587286Y-11281081D01*
X11577762Y-11242986D01*
X11577762Y-11195367D01*
X11587286Y-11157271D01*
X11596809Y-11138224D01*
X11606333Y-11128700D01*
X11625381Y-11119176D01*
X11777762Y-11319176D02*
X11777762Y-11185843D01*
X11777762Y-11204890D02*
X11787286Y-11195367D01*
X11806333Y-11185843D01*
X11834905Y-11185843D01*
X11853952Y-11195367D01*
X11863476Y-11214414D01*
X11863476Y-11319176D01*
X11863476Y-11214414D02*
X11873000Y-11195367D01*
X11892048Y-11185843D01*
X11920619Y-11185843D01*
X11939667Y-11195367D01*
X11949190Y-11214414D01*
X11949190Y-11319176D01*
X12044428Y-11319176D02*
X12044428Y-11185843D01*
X12044428Y-11204890D02*
X12053952Y-11195367D01*
X12073000Y-11185843D01*
X12101571Y-11185843D01*
X12120619Y-11195367D01*
X12130143Y-11214414D01*
X12130143Y-11319176D01*
X12130143Y-11214414D02*
X12139667Y-11195367D01*
X12158714Y-11185843D01*
X12187286Y-11185843D01*
X12206333Y-11195367D01*
X12215857Y-11214414D01*
X12215857Y-11319176D01*
X12606333Y-11109652D02*
X12434905Y-11366795D01*
X12863476Y-11119176D02*
X12882524Y-11119176D01*
X12901571Y-11128700D01*
X12911095Y-11138224D01*
X12920619Y-11157271D01*
X12930143Y-11195367D01*
X12930143Y-11242986D01*
X12920619Y-11281081D01*
X12911095Y-11300128D01*
X12901571Y-11309652D01*
X12882524Y-11319176D01*
X12863476Y-11319176D01*
X12844428Y-11309652D01*
X12834905Y-11300128D01*
X12825381Y-11281081D01*
X12815857Y-11242986D01*
X12815857Y-11195367D01*
X12825381Y-11157271D01*
X12834905Y-11138224D01*
X12844428Y-11128700D01*
X12863476Y-11119176D01*
X13015857Y-11300128D02*
X13025381Y-11309652D01*
X13015857Y-11319176D01*
X13006333Y-11309652D01*
X13015857Y-11300128D01*
X13015857Y-11319176D01*
X13149190Y-11119176D02*
X13168238Y-11119176D01*
X13187286Y-11128700D01*
X13196809Y-11138224D01*
X13206333Y-11157271D01*
X13215857Y-11195367D01*
X13215857Y-11242986D01*
X13206333Y-11281081D01*
X13196809Y-11300128D01*
X13187286Y-11309652D01*
X13168238Y-11319176D01*
X13149190Y-11319176D01*
X13130143Y-11309652D01*
X13120619Y-11300128D01*
X13111095Y-11281081D01*
X13101571Y-11242986D01*
X13101571Y-11195367D01*
X13111095Y-11157271D01*
X13120619Y-11138224D01*
X13130143Y-11128700D01*
X13149190Y-11119176D01*
X13282524Y-11119176D02*
X13406333Y-11119176D01*
X13339667Y-11195367D01*
X13368238Y-11195367D01*
X13387286Y-11204890D01*
X13396809Y-11214414D01*
X13406333Y-11233462D01*
X13406333Y-11281081D01*
X13396809Y-11300128D01*
X13387286Y-11309652D01*
X13368238Y-11319176D01*
X13311095Y-11319176D01*
X13292048Y-11309652D01*
X13282524Y-11300128D01*
X13501571Y-11319176D02*
X13539667Y-11319176D01*
X13558714Y-11309652D01*
X13568238Y-11300128D01*
X13587286Y-11271557D01*
X13596809Y-11233462D01*
X13596809Y-11157271D01*
X13587286Y-11138224D01*
X13577762Y-11128700D01*
X13558714Y-11119176D01*
X13520619Y-11119176D01*
X13501571Y-11128700D01*
X13492048Y-11138224D01*
X13482524Y-11157271D01*
X13482524Y-11204890D01*
X13492048Y-11223938D01*
X13501571Y-11233462D01*
X13520619Y-11242986D01*
X13558714Y-11242986D01*
X13577762Y-11233462D01*
X13587286Y-11223938D01*
X13596809Y-11204890D01*
X13768238Y-11185843D02*
X13768238Y-11319176D01*
X13720619Y-11109652D02*
X13673000Y-11252509D01*
X13796809Y-11252509D01*
X13863476Y-11119176D02*
X13863476Y-11157271D01*
X13939667Y-11119176D02*
X13939667Y-11157271D01*
X14234905Y-11395367D02*
X14225381Y-11385843D01*
X14206333Y-11357271D01*
X14196809Y-11338224D01*
X14187286Y-11309652D01*
X14177762Y-11262033D01*
X14177762Y-11223938D01*
X14187286Y-11176319D01*
X14196809Y-11147748D01*
X14206333Y-11128700D01*
X14225381Y-11100129D01*
X14234905Y-11090605D01*
X14301571Y-11138224D02*
X14311095Y-11128700D01*
X14330143Y-11119176D01*
X14377762Y-11119176D01*
X14396809Y-11128700D01*
X14406333Y-11138224D01*
X14415857Y-11157271D01*
X14415857Y-11176319D01*
X14406333Y-11204890D01*
X14292048Y-11319176D01*
X14415857Y-11319176D01*
X14653952Y-11319176D02*
X14653952Y-11119176D01*
X14739667Y-11319176D02*
X14739667Y-11214414D01*
X14730143Y-11195367D01*
X14711095Y-11185843D01*
X14682524Y-11185843D01*
X14663476Y-11195367D01*
X14653952Y-11204890D01*
X14863476Y-11319176D02*
X14844428Y-11309652D01*
X14834905Y-11300128D01*
X14825381Y-11281081D01*
X14825381Y-11223938D01*
X14834905Y-11204890D01*
X14844428Y-11195367D01*
X14863476Y-11185843D01*
X14892048Y-11185843D01*
X14911095Y-11195367D01*
X14920619Y-11204890D01*
X14930143Y-11223938D01*
X14930143Y-11281081D01*
X14920619Y-11300128D01*
X14911095Y-11309652D01*
X14892048Y-11319176D01*
X14863476Y-11319176D01*
X15044428Y-11319176D02*
X15025381Y-11309652D01*
X15015857Y-11290605D01*
X15015857Y-11119176D01*
X15196809Y-11309652D02*
X15177762Y-11319176D01*
X15139667Y-11319176D01*
X15120619Y-11309652D01*
X15111095Y-11290605D01*
X15111095Y-11214414D01*
X15120619Y-11195367D01*
X15139667Y-11185843D01*
X15177762Y-11185843D01*
X15196809Y-11195367D01*
X15206333Y-11214414D01*
X15206333Y-11233462D01*
X15111095Y-11252509D01*
X15282524Y-11309652D02*
X15301571Y-11319176D01*
X15339667Y-11319176D01*
X15358714Y-11309652D01*
X15368238Y-11290605D01*
X15368238Y-11281081D01*
X15358714Y-11262033D01*
X15339667Y-11252509D01*
X15311095Y-11252509D01*
X15292048Y-11242986D01*
X15282524Y-11223938D01*
X15282524Y-11214414D01*
X15292048Y-11195367D01*
X15311095Y-11185843D01*
X15339667Y-11185843D01*
X15358714Y-11195367D01*
X15434905Y-11395367D02*
X15444428Y-11385843D01*
X15463476Y-11357271D01*
X15473000Y-11338224D01*
X15482524Y-11309652D01*
X15492048Y-11262033D01*
X15492048Y-11223938D01*
X15482524Y-11176319D01*
X15473000Y-11147748D01*
X15463476Y-11128700D01*
X15444428Y-11100129D01*
X15434905Y-11090605D01*
M02*
